<svg id="Layer_1" data-name="Layer 1" xmlns="http://www.w3.org/2000/svg" xmlns:xlink="http://www.w3.org/1999/xlink" viewBox="0 0 429 430.28"><defs><style>.cls-1,.cls-6{fill:none;}.cls-2{clip-path:url(#clip-path);}.cls-3,.cls-7{fill:#0074cc;}.cls-4{fill:#fff;}.cls-4,.cls-6,.cls-7{fill-rule:evenodd;}.cls-5{fill:#f5eee1;stroke:#0074cc;stroke-miterlimit:10;}</style><clipPath id="clip-path"><rect class="cls-1" x="-38.47" y="-35.12" width="501.94" height="501.94"/></clipPath></defs><title>Rose des vents - Rétrécissement</title><g class="cls-2"><path class="cls-3" d="M143.44,216.53a67.94,67.94,0,1,1,67.94,67.94,67.95,67.95,0,0,1-67.94-67.94m2.67,0a65.27,65.27,0,1,0,65.27-65.27,65.34,65.34,0,0,0-65.27,65.27"/><path class="cls-4" d="M211.39,277.37a60.84,60.84,0,1,1,60.83-60.83,60.91,60.91,0,0,1-60.83,60.83"/><path class="cls-5" d="M211.38,155a61.5,61.5,0,1,0,61.51,61.51A61.57,61.57,0,0,0,211.38,155"/><path class="cls-3" d="M184.84,90.33l2.37,11.13-.51.11-2.36-11.13.5-.11m53.63,252.3-.51.11-2.37-11.13.51-.11Z"/><path class="cls-3" d="M180.46,91.34l2.76,11-.51.12-2.75-11Zm62.4,250.28-.5.12-2.75-11,.51-.12Z"/><path class="cls-3" d="M176.1,92.48l3.14,10.94-.5.15-3.14-10.94.5-.15m71.1,248-.5.15-3.14-10.94.5-.15Z"/><path class="cls-3" d="M171.8,93.8l3.52,10.82-.49.16L171.3,94Zm79.71,245.32-.5.16-3.52-10.82.5-.16Z"/><path class="cls-3" d="M167.54,95.26l3.89,10.69-.49.18L167,95.43l.49-.17m88.23,242.4-.49.17-3.89-10.69.49-.17Z"/><path class="cls-3" d="M163.33,96.86l4.26,10.55-.48.2-4.27-10.55ZM260,336l-.48.2-4.26-10.55.48-.2Z"/><path class="cls-3" d="M159.18,98.61l4.63,10.4-.48.21-4.63-10.39ZM264.1,334.26l-.48.21L259,324.07l.48-.21Z"/><path class="cls-3" d="M155.1,100.51l5,10.23-.47.23-5-10.23ZM268.17,332.34l-.47.23-5-10.22.47-.24Z"/><path class="cls-3" d="M151.09,102.55l5.34,10-.46.24-5.34-10ZM272.18,330.29l-.46.24-5.34-10,.46-.24Z"/><path class="cls-3" d="M147.14,104.72l5.69,9.85-.45.27L146.7,105l.44-.26m129,223.37-.45.27L270,318.5l.45-.26Z"/><path class="cls-3" d="M143.29,107l6,9.65-.44.28-6-9.65ZM280,325.76l-.44.28-6-9.65.44-.27Z"/><path class="cls-3" d="M139.51,109.48l6.36,9.44-.43.29-6.36-9.43ZM283.73,323.3l-.43.29-6.37-9.43.43-.3Z"/><path class="cls-3" d="M135.82,112.07l6.69,9.2-.42.31-6.69-9.21ZM287.41,320.7,287,321l-6.68-9.21.42-.31Z"/><path class="cls-3" d="M132.22,114.77l7,9-.41.32-7-9,.42-.32M291,318l-.41.32-7-9L284,309Z"/><path class="cls-3" d="M128.72,117.6l7.31,8.71-.4.34-7.31-8.72ZM294.48,315.14l-.4.34-7.31-8.71.4-.34Z"/><path class="cls-3" d="M125.32,120.55l7.61,8.45-.39.35-7.61-8.45ZM297.87,312.19l-.39.35-7.61-8.46.39-.34Z"/><path class="cls-3" d="M122,123.61l7.9,8.19-.37.36-7.9-8.18.37-.37m179.13,185.5-.38.36-7.9-8.18.37-.37Z"/><path class="cls-3" d="M118.84,126.78l8.18,7.9-.37.37-8.18-7.9ZM304.33,305.92l-.36.37-8.18-7.9.36-.37Z"/><path class="cls-3" d="M115.76,130.07l8.45,7.61-.35.39-8.45-7.61ZM307.4,302.62l-.34.39-8.46-7.61.35-.39Z"/><path class="cls-3" d="M112.8,133.46l8.72,7.32-.34.39-8.71-7.31ZM310.34,299.22l-.34.4-8.71-7.31.33-.4Z"/><path class="cls-3" d="M110,136.95l9,7-.32.41-9-7,.32-.41M313.17,295.72l-.32.41-9-7,.32-.42Z"/><path class="cls-3" d="M107.24,140.54l9.21,6.68-.31.42-9.2-6.69ZM315.88,292.12l-.31.42-9.2-6.69.31-.42Z"/><path class="cls-3" d="M104.64,144.21l9.43,6.37-.29.43-9.43-6.36ZM318.46,288.44l-.29.43-9.44-6.37.29-.43Z"/><path class="cls-3" d="M102.19,148l9.65,6-.28.44-9.65-6ZM320.9,284.65l-.27.44-9.65-6,.28-.44Z"/><path class="cls-3" d="M99.85,151.84l9.86,5.69-.27.45-9.85-5.69.26-.45m223.37,129-.27.45-9.85-5.69.27-.45Z"/><path class="cls-3" d="M97.66,155.77l10,5.34-.24.46-10-5.34ZM325.39,276.85l-.24.46-10-5.34.24-.46Z"/><path class="cls-3" d="M95.61,159.77l10.23,5-.23.47-10.23-5ZM327.43,272.85l-.23.46-10.23-5,.23-.46Z"/><path class="cls-3" d="M93.69,163.85l10.39,4.63-.21.48-10.4-4.63ZM329.33,268.76l-.21.48-10.4-4.63.21-.47Z"/><path class="cls-3" d="M91.92,168l10.55,4.26-.2.48-10.55-4.26Zm239.16,96.63-.19.48-10.55-4.26.2-.48Z"/><path class="cls-3" d="M90.29,172.18,101,176.07l-.17.49-10.69-3.89c.06-.17.11-.33.17-.49m242.4,88.22-.17.49L321.82,257l.18-.49Z"/><path class="cls-3" d="M88.82,176.44,99.65,180l-.16.5-10.82-3.52Zm245.32,79.71-.16.5-10.82-3.52.16-.5Z"/><path class="cls-3" d="M87.5,180.74l10.94,3.14c0,.16-.1.33-.15.5l-10.94-3.14c0-.17.1-.33.15-.5m248,71.1c0,.17-.1.34-.15.5l-10.94-3.13c.05-.17.1-.33.15-.5Z"/><path class="cls-3" d="M86.33,185.08l11,2.76-.12.5-11-2.75Zm250.27,62.4-.12.5-11-2.75.12-.5Z"/><path class="cls-3" d="M85.31,189.47l11.13,2.36c0,.17-.08.34-.11.51L85.2,190Zm252.3,53.63-.11.51-11.13-2.37.11-.5Z"/><path class="cls-3" d="M84.44,193.89l11.21,2c0,.17-.06.34-.09.52l-11.2-2c0-.17.05-.34.08-.52m254,44.79-.09.52-11.21-2,.09-.52Z"/><path class="cls-3" d="M83.74,198.33,95,199.92l-.07.52-11.27-1.58Zm255.4,35.89-.07.52-11.27-1.58.07-.51Z"/><path class="cls-3" d="M83.18,202.8,94.5,204c0,.17,0,.34-.06.52l-11.32-1.19c0-.17,0-.35.06-.52m256.5,27c0,.17,0,.34-.06.52l-11.31-1.19c0-.17,0-.34.06-.52Z"/><path class="cls-3" d="M82.79,207.29l11.35.79,0,.52-11.35-.79Zm257.27,18,0,.52L328.67,225l0-.52Z"/><path class="cls-3" d="M82.55,211.78l11.37.4,0,.52-11.37-.39Zm257.73,9,0,.52-11.36-.4v-.52Z"/><path class="cls-3" d="M82.46,216.28H93.83v.52H82.46v-.52Zm257.89,0v.52H329v-.52Z"/><path class="cls-3" d="M82.53,220.78l11.37-.4,0,.52-11.37.4Zm257.73-9,0,.52-11.37.39v-.52Z"/><path class="cls-3" d="M82.76,225.28l11.35-.79,0,.52-11.35.8Zm257.27-18,0,.52-11.35.79,0-.52Z"/><path class="cls-3" d="M83.12,229.76l11.32-1.18c0,.17,0,.34.06.51l-11.31,1.19-.06-.52m256.5-27c0,.17,0,.35.06.51l-11.31,1.19c0-.17,0-.34-.06-.51Z"/><path class="cls-3" d="M83.67,234.23l11.27-1.58.07.51-11.27,1.58Zm255.4-35.89.07.51-11.27,1.58-.07-.51Z"/><path class="cls-3" d="M84.36,238.68l11.2-2c0,.17.05.35.09.52l-11.21,2c0-.17-.06-.34-.08-.51m254-44.79.09.52-11.21,2c0-.18-.06-.35-.09-.52Z"/><path class="cls-3" d="M85.2,243.1l11.13-2.37c0,.17.08.34.11.5l-11.13,2.37Zm252.3-53.63.11.51-11.13,2.37c0-.17-.07-.34-.11-.51Z"/><path class="cls-3" d="M86.2,247.49l11-2.75.12.5-11,2.75Zm250.27-62.4.13.5-11,2.75-.13-.5Z"/><path class="cls-3" d="M87.35,251.84l10.94-3.14c0,.17.1.33.15.5L87.5,252.34c0-.16-.1-.33-.15-.5m248-71.1c0,.17.1.33.15.5l-10.94,3.14c0-.17-.1-.34-.15-.5Z"/><path class="cls-3" d="M88.67,256.15l10.82-3.51.16.49-10.82,3.52ZM334,176.44l.16.5-10.82,3.52-.16-.5Z"/><path class="cls-3" d="M90.12,260.41l10.69-3.89.18.49-10.69,3.89c-.06-.16-.12-.32-.18-.49m242.4-88.23c.06.16.11.33.17.49L322,176.56l-.18-.49Z"/><path class="cls-3" d="M91.73,264.61l10.55-4.26.2.48-10.55,4.26ZM330.89,168l.2.48-10.55,4.26-.2-.48Z"/><path class="cls-3" d="M93.48,268.76l10.4-4.62c.07.15.14.31.21.47l-10.39,4.63-.21-.48M329.12,163.85l.2.48L318.93,169l-.21-.48Z"/><path class="cls-3" d="M95.38,272.84l10.23-5,.23.46-10.23,5ZM327.2,159.77l.23.47-10.23,5-.23-.47Z"/><path class="cls-3" d="M97.42,276.85l10-5.34.24.46-10,5.34ZM325.15,155.77l.24.46-10,5.34-.25-.46Z"/><path class="cls-3" d="M99.59,280.8l9.86-5.69.26.44-9.85,5.69-.27-.44M323,151.84l.27.45L313.37,158l-.27-.45Z"/><path class="cls-3" d="M101.91,284.65l9.64-6,.28.44-9.65,6ZM320.62,148l.28.44-9.65,6L311,154Z"/><path class="cls-3" d="M104.35,288.44l9.44-6.36.29.43-9.43,6.37ZM318.17,144.21l.29.43L309,151l-.29-.43Z"/><path class="cls-3" d="M106.94,292.12l9.2-6.69.31.42-9.2,6.69ZM315.57,140.54l.31.42-9.2,6.69-.3-.42Z"/><path class="cls-3" d="M109.64,295.72l9-7,.31.42-9,7-.32-.41M312.86,136.95l.32.41-9,7-.32-.41Z"/><path class="cls-3" d="M112.46,299.22l8.71-7.31.34.4-8.72,7.32ZM310,133.46l.34.4-8.72,7.31-.34-.39Z"/><path class="cls-3" d="M115.41,302.62l8.45-7.62.34.39L115.76,303ZM307.05,130.07l.34.39-8.46,7.61-.34-.39Z"/><path class="cls-3" d="M118.48,305.92l8.18-7.91.36.37-8.18,7.9-.36-.37M304,126.79l.36.37-8.18,7.91-.36-.37Z"/><path class="cls-3" d="M121.65,309.11l7.9-8.19.37.36-7.9,8.18Zm179.13-185.5.37.36-7.9,8.18-.37-.36Z"/><path class="cls-3" d="M124.93,312.19l7.61-8.45.39.34-7.61,8.46ZM297.49,120.55l.39.35-7.61,8.45-.39-.34Z"/><path class="cls-3" d="M128.33,315.14l7.31-8.72.39.34-7.31,8.71ZM294.09,117.6l.4.33-7.31,8.72-.39-.34Z"/><path class="cls-3" d="M131.81,318l7-9,.41.32-7,9-.41-.31M290.59,114.77l.41.32-7,9-.41-.32Z"/><path class="cls-3" d="M135.4,320.71l6.69-9.21.42.31L135.83,321ZM287,112.07l.42.31-6.69,9.2-.42-.31Z"/><path class="cls-3" d="M139.08,323.3l6.36-9.43.43.3-6.37,9.43ZM283.3,109.49l.43.29-6.36,9.43-.43-.29Z"/><path class="cls-3" d="M142.85,325.76l6-9.65.44.28-6,9.64ZM279.52,107l.44.28-6,9.65-.44-.28Z"/><path class="cls-3" d="M146.7,328.09l5.69-9.85.45.26-5.69,9.86-.45-.26m129-223.37.45.26-5.69,9.86-.45-.26Z"/><path class="cls-3" d="M150.63,330.29,156,320.24l.46.24-5.34,10ZM271.72,102.55l.46.24-5.34,10-.46-.24Z"/><path class="cls-3" d="M154.64,332.34l5-10.23.46.24-5,10.23ZM267.71,100.51l.46.23-5,10.23-.47-.23Z"/><path class="cls-3" d="M158.71,334.26l4.63-10.4.48.21-4.63,10.4-.48-.21M263.63,98.61l.47.21-4.63,10.4L259,109Z"/><path class="cls-3" d="M162.85,336l4.26-10.55.48.2-4.27,10.55ZM259.48,96.86l.48.2-4.26,10.55-.48-.2Z"/><path class="cls-3" d="M167,337.65,170.94,327l.49.18-3.89,10.69-.49-.18m88.23-242.4.49.17-3.89,10.69-.49-.17Z"/><path class="cls-3" d="M171.3,339.12l3.52-10.83.49.16-3.51,10.82ZM251,93.8l.49.16L248,104.78l-.49-.16Z"/><path class="cls-3" d="M175.61,340.45l3.14-10.95.5.15L176.1,340.6l-.5-.15m71.1-248,.5.15-3.14,10.94-.5-.15Z"/><path class="cls-3" d="M180,341.62l2.76-11,.5.13-2.76,11Zm62.4-250.28.51.12-2.76,11-.51-.12Z"/><path class="cls-3" d="M184.34,342.63l2.37-11.13.51.11-2.37,11.13ZM238,90.33l.51.11-2.37,11.13-.51-.11Z"/><path class="cls-3" d="M188.75,343.5l2-11.21.51.08-2,11.21-.51-.08m44.79-254,.51.09-2,11.2-.52-.08Z"/><path class="cls-3" d="M193.2,344.2l1.58-11.27.51.07-1.58,11.27ZM229.1,88.8l.51.07L228,100.14l-.51-.08Z"/><path class="cls-3" d="M197.67,344.76l1.19-11.31.52.06-1.19,11.32-.52-.06m27-256.5.52.06L224,99.64l-.52-.06Z"/><path class="cls-3" d="M202.15,345.16l.79-11.35.52,0-.79,11.35-.52,0m18-257.26.52,0-.8,11.35-.52,0Z"/><path class="cls-3" d="M206.64,345.39,207,334l.52,0-.4,11.37Zm9-257.72.52,0-.4,11.37-.52,0Z"/><path class="cls-3" d="M211.14,345.49V334.11h.52v11.38h-.52Zm.26-257.89h.26V99h-.52V87.6Z"/><path class="cls-3" d="M215.64,345.41l-.4-11.37.52,0,.4,11.37Zm-9-257.73.52,0,.4,11.37-.52,0Z"/><path class="cls-3" d="M220.14,345.19l-.79-11.35.52,0,.79,11.35Zm-18-257.26.52,0,.79,11.35-.52,0Z"/><path class="cls-3" d="M224.63,344.82l-1.19-11.32.52-.06,1.19,11.31-.52.06m-27-256.49.51-.06,1.19,11.31-.52.06Z"/><path class="cls-3" d="M229.09,344.27,227.51,333l.52-.07,1.58,11.27ZM193.2,88.88l.51-.08,1.58,11.27-.52.08Z"/><path class="cls-3" d="M232.08,332.3l-.51.08,2,11.25.52-.09ZM188.74,89.53l2,11.25.51-.08-2-11.25-.51.08"/><polygon class="cls-3" points="187.9 157.12 187.32 157.39 157.04 87.32 157.59 87.06 187.9 157.12"/><polygon class="cls-3" points="166.93 170.66 166.52 171.1 72.14 79.53 72.57 79.1 166.93 170.66"/><polygon class="cls-3" points="152.77 191.16 152.54 191.74 81.58 163.58 81.8 163.04 152.77 191.16"/><polygon class="cls-3" points="151.99 240.06 152.24 240.6 82.16 270.89 81.9 270.35 151.99 240.06"/><polygon class="cls-3" points="165.51 261.02 165.94 261.45 74.16 356.02 73.7 355.64 165.51 261.02"/><polygon class="cls-3" points="186.05 275.18 186.59 275.42 158.43 346.37 157.85 346.15 186.05 275.18"/><polygon class="cls-3" points="234.91 275.98 235.47 275.69 265.74 345.81 265.18 346.01 234.91 275.98"/><polygon class="cls-3" points="255.88 262.45 256.27 261.99 350.17 353.1 349.78 353.56 255.88 262.45"/><polygon class="cls-3" points="270.03 241.9 270.24 241.35 341.22 269.52 340.99 270.05 270.03 241.9"/><polygon class="cls-3" points="270.8 193.03 270.55 192.48 340.63 162.19 340.88 162.73 270.8 193.03"/><polygon class="cls-3" points="255.88 173.27 255.25 172.7 349.25 80.27 349.84 80.9 255.88 173.27"/><polygon class="cls-3" points="236.75 157.91 236.22 157.68 264.34 86.71 264.92 86.93 236.75 157.91"/><path class="cls-1" d="M211.24,41.32A175.33,175.33,0,1,0,386.57,216.65,175.33,175.33,0,0,0,211.24,41.32m0,329.33a154,154,0,1,1,154-154,154,154,0,0,1-154,154"/><path class="cls-3" d="M312.56,112.14a145.37,145.37,0,1,0,3.23,205.58,145.35,145.35,0,0,0-3.23-205.58M254,350.6A140.68,140.68,0,1,1,345.5,173.94,140.65,140.65,0,0,1,254,350.6"/><path class="cls-3" d="M141.62,148.91A97.18,97.18,0,1,0,279,146.76a97.15,97.15,0,0,0-137.41,2.15m138.69,134.4a96,96,0,1,1-2.11-135.7,95.94,95.94,0,0,1,2.11,135.7"/><path class="cls-3" d="M150.83,157.84A84.37,84.37,0,1,0,270.1,156a84.33,84.33,0,0,0-119.28,1.87M271.24,274.49a83.3,83.3,0,1,1-1.84-117.76,83.28,83.28,0,0,1,1.84,117.76"/><path class="cls-3" d="M167.59,174.09a61,61,0,1,0,86.26-1.35,61,61,0,0,0-86.26,1.35m87.12,84.44a60.33,60.33,0,1,1-1.3-85.32,60.34,60.34,0,0,1,1.3,85.32"/><path class="cls-3" d="M211.14,6.3l12.27,15.43V11a5.05,5.05,0,0,0-.64-3,3.56,3.56,0,0,0-3-1V6.3H228V7a6.41,6.41,0,0,0-2.12.52,2.12,2.12,0,0,0-.84,1.05,7.09,7.09,0,0,0-.3,2.48V31.75h-.62L207.33,11V26.86a3.5,3.5,0,0,0,1,2.9,3.61,3.61,0,0,0,2.25.75h.59v.68h-8.83v-.68a4,4,0,0,0,2.86-.84,4,4,0,0,0,.81-2.81V9.29l-.53-.66a4.88,4.88,0,0,0-1.39-1.3A4.2,4.2,0,0,0,202.32,7V6.3Z"/><path class="cls-3" d="M7.16,196.68h.68a2.36,2.36,0,0,0,.38,1.17,2.82,2.82,0,0,0,1,.84q.22.12,2.84,1.16l20.53,7.8v.72l-16,6.16,16,6.79V222l-20.31,8.18a21.76,21.76,0,0,0-3.71,1.74,2.27,2.27,0,0,0-.75,1.67H7.16V222.81h.68a3.09,3.09,0,0,0,.4,1.74,1.12,1.12,0,0,0,.89.43,10.77,10.77,0,0,0,3-.9l12.07-4.88-9.43-3.91-2.64,1a19.92,19.92,0,0,0-2.88,1.3,2.78,2.78,0,0,0-1,1.05,3.84,3.84,0,0,0-.31,1.75H7.16V208.37h.68a6.64,6.64,0,0,0,.2,1.82,1.2,1.2,0,0,0,.43.6,1.12,1.12,0,0,0,.69.22,12.64,12.64,0,0,0,2.59-.82l11.78-4.53L12.86,201.6a22.46,22.46,0,0,0-2.26-.79,4.6,4.6,0,0,0-1.12-.15,1.46,1.46,0,0,0-1.18.51,3.33,3.33,0,0,0-.47,2H7.16Z"/><path class="cls-3" d="M208.2,424.1l-.2-8.29h.75a8.5,8.5,0,0,0,2.61,5,6.59,6.59,0,0,0,4.51,1.89,4.19,4.19,0,0,0,3-1,3.05,3.05,0,0,0,1.09-2.31,2.77,2.77,0,0,0-.38-1.47,6.28,6.28,0,0,0-1.7-1.71,37.8,37.8,0,0,0-4-2.15Q209.48,412,208,410a6.86,6.86,0,0,1-1.5-4.37,7.06,7.06,0,0,1,2.43-5.37,8.74,8.74,0,0,1,6.18-2.25,9.87,9.87,0,0,1,2.22.24,17.32,17.32,0,0,1,2.63.9,3.89,3.89,0,0,0,1.45.37,1.79,1.79,0,0,0,1-.37,2.56,2.56,0,0,0,.86-1.12h.68v9.39h-.68a10.77,10.77,0,0,0-3.11-6,7.27,7.27,0,0,0-5-2.08,4.67,4.67,0,0,0-3.28,1.12,3.44,3.44,0,0,0-1.22,2.61,3.4,3.4,0,0,0,.47,1.71,5.46,5.46,0,0,0,1.43,1.57,21.21,21.21,0,0,0,3.38,1.94,29.2,29.2,0,0,1,4.88,2.84,8.67,8.67,0,0,1,2.28,2.63,6.47,6.47,0,0,1,.8,3.19A6.74,6.74,0,0,1,221.7,422a7.63,7.63,0,0,1-5.5,2.09,9.24,9.24,0,0,1-2.35-.29,11.54,11.54,0,0,1-2.1-.81,4.92,4.92,0,0,0-1.73-.6,1,1,0,0,0-.75.29,3.46,3.46,0,0,0-.52,1.41Z"/><path class="cls-3" d="M423.23,213.32H413.1v.49a3.93,3.93,0,0,0,1.49,3.43A9.13,9.13,0,0,0,419,218.6v.7h-13v-.7a9.8,9.8,0,0,0,3.49-.92,4,4,0,0,0,1.83-1.64,6.23,6.23,0,0,0,.47-2.71h-7a9.92,9.92,0,0,0-2.51.17,1.51,1.51,0,0,0-.75.65,3,3,0,0,0-.29,1.54v1.49a8,8,0,0,0,6.53,8.6v.68l-7.91-1.12v-21.5h.68v.82a3.47,3.47,0,0,0,.38,1.75,1.66,1.66,0,0,0,.88.73,7.52,7.52,0,0,0,2.32.2h16.36a13.39,13.39,0,0,0,2.07-.09,1.77,1.77,0,0,0,1-.68,3.15,3.15,0,0,0,.51-1.91v-.82h.68v20.82h-7.36V224a9,9,0,0,0,3.87-1.49,5.54,5.54,0,0,0,1.72-2.73,14.62,14.62,0,0,0,.33-3.85Z"/><path class="cls-3" d="M337.25,333.3l-2.81-2.68.25-.25a4,4,0,0,0,2.53.79,3.08,3.08,0,0,0,2.12-.86A2,2,0,0,0,340,329a1.42,1.42,0,0,0-.41-1.12,1.32,1.32,0,0,0-.61-.36,3,3,0,0,0-1.13,0,19.34,19.34,0,0,0-2,.6,8.28,8.28,0,0,1-3.29.61,3.23,3.23,0,0,1-1.95-1,3.31,3.31,0,0,1-1-2.58,4.08,4.08,0,0,1,1.3-2.79,4.43,4.43,0,0,1,.82-.65,7.86,7.86,0,0,1,1.17-.57,2,2,0,0,0,.6-.36.82.82,0,0,0,.21-.46,1.22,1.22,0,0,0-.09-.66l.23-.22,3.11,3.11-.23.22a5,5,0,0,0-3-1,3.38,3.38,0,0,0-2.33,1,2.17,2.17,0,0,0-.72,1.46,1.58,1.58,0,0,0,1.18,1.68,2.58,2.58,0,0,0,1,.05,10.41,10.41,0,0,0,1.77-.48,13.53,13.53,0,0,1,2.56-.67,4.06,4.06,0,0,1,1.62.11,3.08,3.08,0,0,1,1.32.79,3.15,3.15,0,0,1,1,2.4,3.57,3.57,0,0,1-1.13,2.52,4,4,0,0,1-.88.68,5.18,5.18,0,0,1-1,.43,2.37,2.37,0,0,0-.77.37.47.47,0,0,0-.15.35,1.57,1.57,0,0,0,.3.64Z"/><path class="cls-3" d="M332.12,337.1l-3.36-3.35-.16.16a1.84,1.84,0,0,0-.64,1.63,4.31,4.31,0,0,0,1,1.9l-.23.23-4.31-4.31.22-.23a4.65,4.65,0,0,0,1.46.85,1.91,1.91,0,0,0,1.15.06,2.92,2.92,0,0,0,1.05-.74L326,331a4.74,4.74,0,0,0-.89-.78.75.75,0,0,0-.47,0,1.45,1.45,0,0,0-.61.41l-.49.49a3.76,3.76,0,0,0-.68,5l-.22.22-2.25-3,7.13-7.12.22.22-.28.27a1.64,1.64,0,0,0-.45.71.73.73,0,0,0,0,.53,3.34,3.34,0,0,0,.7.83l5.42,5.42a5.5,5.5,0,0,0,.72.65.8.8,0,0,0,.55.11,1.48,1.48,0,0,0,.8-.46l.27-.27.22.22-6.89,6.9-2.44-2.44.23-.23a4.25,4.25,0,0,0,1.78.79,2.6,2.6,0,0,0,1.47-.33,7.07,7.07,0,0,0,1.39-1.17Z"/><path class="cls-3" d="M93.67,340.33l2.73-2.77.25.26a3.94,3.94,0,0,0-.84,2.51,3.07,3.07,0,0,0,.82,2.14,2,2,0,0,0,1.31.68,1.44,1.44,0,0,0,1.13-.39,1.27,1.27,0,0,0,.37-.61,2.93,2.93,0,0,0,0-1.13,19.2,19.2,0,0,0-.57-2,8.22,8.22,0,0,1-.56-3.31,3.22,3.22,0,0,1,1-1.92,3.31,3.31,0,0,1,2.6-.93,4.1,4.1,0,0,1,2.77,1.35,4.46,4.46,0,0,1,.64.82,7.84,7.84,0,0,1,.55,1.18,1.87,1.87,0,0,0,.35.6.84.84,0,0,0,.45.22,1.2,1.2,0,0,0,.66-.07l.22.23-3.16,3.06-.22-.23a5.08,5.08,0,0,0,1-3,3.41,3.41,0,0,0-.92-2.35,2.17,2.17,0,0,0-1.45-.74,1.61,1.61,0,0,0-1.27.44,1.54,1.54,0,0,0-.42.71,2.54,2.54,0,0,0-.06,1,9.7,9.7,0,0,0,.45,1.77,13.87,13.87,0,0,1,.63,2.57A4.08,4.08,0,0,1,102,342a3,3,0,0,1-.81,1.31,3.16,3.16,0,0,1-2.42.92A3.6,3.6,0,0,1,96.28,343a4.44,4.44,0,0,1-.67-.88,5.92,5.92,0,0,1-.41-1,2.33,2.33,0,0,0-.36-.78.45.45,0,0,0-.35-.15,1.58,1.58,0,0,0-.64.29Z"/><path class="cls-3" d="M80.68,326.52l.23-.22a1.13,1.13,0,0,0,.51.27,1.33,1.33,0,0,0,.62,0l1.34-.54,9.45-4.06.23.24-3.39,7.3,7.61-2.94.22.23-4.17,9.37a10,10,0,0,0-.68,1.8,1,1,0,0,0,.29.8l-.23.23-3.51-3.63.23-.22a1.42,1.42,0,0,0,.7.46.53.53,0,0,0,.44-.15,4.8,4.8,0,0,0,.7-1.26l2.48-5.58-4.45,1.76-.56,1.21a8.57,8.57,0,0,0-.55,1.38,1.28,1.28,0,0,0,0,.69,1.85,1.85,0,0,0,.47.7l-.23.22-3.92-4.06.23-.22a3.21,3.21,0,0,0,.66.55.59.59,0,0,0,.34.06.52.52,0,0,0,.3-.15,6,6,0,0,0,.6-1.12l2.49-5.37-4.91,2.11a9.64,9.64,0,0,0-1,.47,1.94,1.94,0,0,0-.43.31.69.69,0,0,0-.23.56,1.52,1.52,0,0,0,.48.81l-.23.23Z"/><path class="cls-3" d="M328.76,95.61l-1,9.18,3.55-3.54a2.37,2.37,0,0,0,.79-1.22,1.66,1.66,0,0,0-.64-1.32l.22-.22,2.73,2.72-.23.22a3,3,0,0,0-.88-.53,1,1,0,0,0-.63.07,3.38,3.38,0,0,0-.92.72l-6.86,6.86-.21-.2,1.29-12.44-5.24,5.24a1.63,1.63,0,0,0-.63,1.29,1.68,1.68,0,0,0,.49,1l.19.2-.22.22-2.92-2.92.22-.22a1.89,1.89,0,0,0,1.23.67,1.85,1.85,0,0,0,1.19-.66l5.82-5.81,0-.39a2.21,2.21,0,0,0,0-.89,2,2,0,0,0-.46-.7l.22-.22Z"/><path class="cls-3" d="M337.58,105.36l-3.36,3.36.16.16a1.83,1.83,0,0,0,1.63.64,4.24,4.24,0,0,0,1.9-1l.23.23-4.32,4.31-.23-.23a4.5,4.5,0,0,0,.85-1.46,1.92,1.92,0,0,0,.06-1.15,3,3,0,0,0-.74-1.05l-2.32,2.32a4.75,4.75,0,0,0-.78.89.71.71,0,0,0,0,.47,1.42,1.42,0,0,0,.41.61l.49.49a3.76,3.76,0,0,0,5,.69l.23.22-3,2.25L326.66,110l.23-.22.27.27a1.62,1.62,0,0,0,.71.45.79.79,0,0,0,.54,0,3.52,3.52,0,0,0,.83-.7l5.42-5.42a6,6,0,0,0,.66-.72.85.85,0,0,0,.1-.55,1.45,1.45,0,0,0-.46-.8l-.27-.28.22-.22,6.9,6.9-2.44,2.44-.23-.23a4.22,4.22,0,0,0,.78-1.78,2.6,2.6,0,0,0-.33-1.47,7,7,0,0,0-1.16-1.39Z"/><path class="cls-3" d="M84.1,107.33l9.17,1-3.54-3.54a2.38,2.38,0,0,0-1.22-.79,1.66,1.66,0,0,0-1.32.64l-.22-.23,2.72-2.72.23.22a2.84,2.84,0,0,0-.53.88,1,1,0,0,0,.06.63,3.35,3.35,0,0,0,.72.92L97,111.24l-.21.2-12.43-1.29,5.24,5.24a1.62,1.62,0,0,0,1.29.64,1.69,1.69,0,0,0,1-.5l.2-.19.23.22-2.93,2.92-.22-.23a1.86,1.86,0,0,0,.67-1.23,1.89,1.89,0,0,0-.66-1.2L83.39,110,83,110a2.24,2.24,0,0,0-.89,0,2,2,0,0,0-.69.46l-.22-.22Z"/><path class="cls-3" d="M102.33,89.1l.22.22a1.07,1.07,0,0,0-.26.52,1.28,1.28,0,0,0,.05.61c0,.07.21.52.56,1.33l4.22,9.39-.24.24-7.36-3.27,3.06,7.56-.22.23-9.44-4a10.51,10.51,0,0,0-1.8-.65,1.06,1.06,0,0,0-.8.3l-.22-.22,3.57-3.57.23.22a1.46,1.46,0,0,0-.45.71.51.51,0,0,0,.15.43,4.8,4.8,0,0,0,1.28.68l5.61,2.39-1.83-4.42-1.22-.54a9,9,0,0,0-1.39-.52,1.35,1.35,0,0,0-.69,0,1.85,1.85,0,0,0-.69.48L94.46,97l4-4,.23.23a3.06,3.06,0,0,0-.54.67.55.55,0,0,0-.05.35.53.53,0,0,0,.15.3,6.14,6.14,0,0,0,1.13.58l5.4,2.4-2.19-4.87a9.56,9.56,0,0,0-.48-1,2.63,2.63,0,0,0-.32-.42.68.68,0,0,0-.56-.22,1.51,1.51,0,0,0-.81.5l-.23-.23Z"/><path class="cls-3" d="M242.62,146.46a4,4,0,1,1-5.23-2.17,4,4,0,0,1,5.23,2.17"/><path class="cls-3" d="M282.94,243.39a4,4,0,1,1-5.23-2.17,4,4,0,0,1,5.23,2.17"/><path class="cls-3" d="M185.82,283.38a4,4,0,1,1-5.23-2.17,4,4,0,0,1,5.23,2.17"/><path class="cls-3" d="M145.5,186.64a4,4,0,1,1-5.23-2.17,4,4,0,0,1,5.23,2.17"/><path class="cls-3" d="M183.7,144.27a4,4,0,1,1-5.23,2.17,4,4,0,0,1,5.23-2.17"/><path class="cls-3" d="M280.76,184.3a4,4,0,1,1-5.23,2.17,4,4,0,0,1,5.23-2.17"/><path class="cls-3" d="M240.35,281.25a4,4,0,1,1-5.23,2.17,4,4,0,0,1,5.23-2.17"/><path class="cls-3" d="M143.44,241.36a4,4,0,1,1-5.23,2.17,4,4,0,0,1,5.23-2.17"/><polygon class="cls-6" points="192.46 197.6 211.4 41.67 230.34 197.6 211.4 216.52 192.46 197.6"/><polygon class="cls-5" points="192.46 197.6 211.4 41.67 230.34 197.6 211.4 216.52 192.46 197.6"/><polygon class="cls-7" points="192.46 197.6 211.38 41.79 211.4 216.52 192.46 197.6"/><polygon class="cls-6" points="192.67 235.55 36.53 216.55 192.46 197.6 211.4 216.52 192.67 235.55"/><polygon class="cls-5" points="192.67 235.55 36.53 216.55 192.46 197.6 211.4 216.52 192.67 235.55"/><polygon class="cls-7" points="192.46 235.48 36.53 216.55 211.4 216.52 192.46 235.48"/><polygon class="cls-6" points="230.34 235.48 211.41 391.41 192.46 235.48 211.4 216.52 230.34 235.48"/><polygon class="cls-5" points="230.34 235.48 211.41 391.41 192.46 235.48 211.4 216.52 230.34 235.48"/><polygon class="cls-7" points="230.34 235.48 211.42 391.29 211.42 216.54 230.34 235.48"/><polygon class="cls-6" points="230.34 197.6 386.28 216.54 230.34 235.48 211.4 216.52 230.34 197.6"/><polygon class="cls-5" points="230.34 197.6 386.28 216.54 230.34 235.48 211.4 216.52 230.34 197.6"/><polygon class="cls-7" points="230.34 197.6 386.15 216.52 211.4 216.52 230.34 197.6"/><polygon class="cls-6" points="196.57 216.54 142.94 148.08 211.4 201.71 211.39 216.53 196.57 216.54"/><polygon class="cls-5" points="196.57 216.54 142.94 148.08 211.4 201.71 211.39 216.53 196.57 216.54"/><polygon class="cls-7" points="196.57 216.54 142.98 148.14 211.39 216.53 196.57 216.54"/><polygon class="cls-6" points="211.51 231.32 142.94 285 196.57 216.54 211.39 216.53 211.51 231.32"/><polygon class="cls-5" points="211.51 231.32 142.94 285 196.57 216.54 211.39 216.53 211.51 231.32"/><polygon class="cls-7" points="211.4 231.37 142.94 285 211.39 216.53 211.4 231.37"/><polygon class="cls-6" points="226.23 216.54 279.86 285 211.4 231.37 211.39 216.53 226.23 216.54"/><polygon class="cls-5" points="226.23 216.54 279.86 285 211.4 231.37 211.39 216.53 226.23 216.54"/><polygon class="cls-7" points="226.23 216.54 279.82 284.95 211.41 216.53 226.23 216.54"/><polygon class="cls-6" points="211.4 201.71 279.86 148.08 226.23 216.54 211.39 216.53 211.4 201.71"/><polygon class="cls-5" points="211.4 201.71 279.86 148.08 226.23 216.54 211.39 216.53 211.4 201.71"/><polygon class="cls-7" points="211.4 201.71 279.8 148.12 211.39 216.53 211.4 201.71"/></g></svg>